<mxfile host="app.diagrams.net" agent="Mozilla/5.0 (X11; Linux x86_64) AppleWebKit/537.36 (KHTML, like Gecko) Chrome/126.0.0.0 Safari/537.36" version="24.7.16">
  <diagram name="第 1 页" id="fdwVLOWYnRtc1PEpaSVF">
    <mxGraphModel dx="547" dy="1148" grid="1" gridSize="10" guides="1" tooltips="1" connect="1" arrows="1" fold="1" page="1" pageScale="1" pageWidth="827" pageHeight="1169" math="0" shadow="0">
      <root>
        <mxCell id="0" />
        <mxCell id="1" parent="0" />
        <mxCell id="ccUCSOv4F-g9DqXI8Qtt-3" value="" style="edgeStyle=orthogonalEdgeStyle;rounded=0;orthogonalLoop=1;jettySize=auto;html=1;" edge="1" parent="1" source="ccUCSOv4F-g9DqXI8Qtt-1" target="ccUCSOv4F-g9DqXI8Qtt-2">
          <mxGeometry relative="1" as="geometry" />
        </mxCell>
        <mxCell id="ccUCSOv4F-g9DqXI8Qtt-1" value="接收参数&lt;br&gt;用户名/邮箱/手机号&lt;br&gt;密码&lt;br&gt;是否记住帐号密码" style="rounded=0;whiteSpace=wrap;html=1;" vertex="1" parent="1">
          <mxGeometry x="110" y="130" width="150" height="80" as="geometry" />
        </mxCell>
        <mxCell id="ccUCSOv4F-g9DqXI8Qtt-2" value="判断账户密码是否为空" style="whiteSpace=wrap;html=1;rounded=0;" vertex="1" parent="1">
          <mxGeometry x="122.5" y="240" width="125" height="60" as="geometry" />
        </mxCell>
      </root>
    </mxGraphModel>
  </diagram>
</mxfile>
